<?xml version="1.0" encoding="UTF-8"?>
<!DOCTYPE svg PUBLIC "-//W3C//DTD SVG 1.0//EN" "http://www.w3.org/TR/2001/REC-SVG-20010904/DTD/svg10.dtd">
<!-- Creator: CorelDRAW 2018 (64 Bit Versão de avaliação) -->
<svg xmlns="http://www.w3.org/2000/svg" xml:space="preserve" width="2498px" height="1063px" version="1.0" style="shape-rendering:geometricPrecision; text-rendering:geometricPrecision; image-rendering:optimizeQuality; fill-rule:evenodd; clip-rule:evenodd"
viewBox="0 0 2498 1062.98"
 xmlns:xlink="http://www.w3.org/1999/xlink">
 <defs>
  <style type="text/css">
   <![CDATA[
    .fil39 {fill:none}
    .fil0 {fill:#FEFEFE}
    .fil29 {fill:#ED3237}
    .fil38 {fill:#F9EC22}
    .fil37 {fill:#9D6627}
    .fil40 {fill:#B88927}
    .fil41 {fill:#E7CB18}
    .fil36 {fill:#FCE600}
    .fil42 {fill:#BDBFC1;fill-rule:nonzero}
    .fil31 {fill:url(#id2)}
    .fil10 {fill:url(#id3)}
    .fil16 {fill:url(#id4)}
    .fil4 {fill:url(#id5)}
    .fil5 {fill:url(#id6)}
    .fil8 {fill:url(#id7)}
    .fil28 {fill:url(#id8)}
    .fil15 {fill:url(#id9)}
    .fil30 {fill:url(#id10)}
    .fil33 {fill:url(#id11)}
    .fil7 {fill:url(#id12)}
    .fil17 {fill:url(#id13)}
    .fil9 {fill:url(#id14)}
    .fil24 {fill:url(#id15)}
    .fil1 {fill:url(#id16)}
    .fil2 {fill:url(#id17)}
    .fil19 {fill:url(#id18)}
    .fil3 {fill:url(#id19)}
    .fil14 {fill:url(#id20)}
    .fil34 {fill:url(#id21)}
    .fil35 {fill:url(#id22)}
    .fil32 {fill:url(#id23)}
    .fil6 {fill:url(#id24)}
    .fil26 {fill:url(#id25)}
    .fil20 {fill:url(#id26)}
    .fil27 {fill:url(#id27)}
    .fil11 {fill:url(#id28)}
    .fil12 {fill:url(#id29)}
    .fil13 {fill:url(#id30)}
    .fil22 {fill:url(#id31)}
    .fil21 {fill:url(#id32)}
    .fil23 {fill:url(#id33)}
    .fil25 {fill:url(#id34)}
    .fil18 {fill:url(#id35)}
   ]]>
  </style>
     <mask id="id0">
  <linearGradient id="id1" gradientUnits="userSpaceOnUse" x1="-842.39" y1="-1402.04" x2="-1399.42" y2="528.76">
   <stop offset="0" style="stop-opacity:1; stop-color:white"/>
   <stop offset="0.188235" style="stop-opacity:-127.502; stop-color:white"/>
   <stop offset="1" style="stop-opacity:0; stop-color:white"/>
  </linearGradient>
      <rect style="fill:url(#id1)" x="67.38" y="57.74" width="385.3" height="391.08"/>
     </mask>
  <linearGradient id="id2" gradientUnits="userSpaceOnUse" x1="661.14" y1="988.16" x2="661.14" y2="761.3">
   <stop offset="0" style="stop-opacity:1; stop-color:#762D2D"/>
   <stop offset="0.301961" style="stop-opacity:1; stop-color:#B12F32"/>
   <stop offset="0.490196" style="stop-opacity:1; stop-color:#B83A3E"/>
   <stop offset="1" style="stop-opacity:1; stop-color:#ED3237"/>
  </linearGradient>
  <linearGradient id="id3" gradientUnits="userSpaceOnUse" x1="143.07" y1="923.66" x2="300.15" y2="747.71">
   <stop offset="0" style="stop-opacity:1; stop-color:#762D2D"/>
   <stop offset="0" style="stop-opacity:1; stop-color:#B12F32"/>
   <stop offset="0.0705882" style="stop-opacity:1; stop-color:#762D2D"/>
   <stop offset="0.65098" style="stop-opacity:1; stop-color:#B83A3E"/>
   <stop offset="1" style="stop-opacity:1; stop-color:#ED3237"/>
  </linearGradient>
  <linearGradient id="id4" gradientUnits="userSpaceOnUse" xlink:href="#id2" x1="491.13" y1="996.61" x2="491.13" y2="802.02">
  </linearGradient>
  <linearGradient id="id5" gradientUnits="userSpaceOnUse" x1="70.48" y1="649.61" x2="299.84" y2="643">
   <stop offset="0" style="stop-opacity:1; stop-color:#762D2D"/>
   <stop offset="0.0509804" style="stop-opacity:1; stop-color:#B12F32"/>
   <stop offset="0.290196" style="stop-opacity:1; stop-color:#B83A3E"/>
   <stop offset="1" style="stop-opacity:1; stop-color:#ED3237"/>
  </linearGradient>
  <linearGradient id="id6" gradientUnits="userSpaceOnUse" x1="256.21" y1="74.93" x2="220.37" y2="381.86">
   <stop offset="0" style="stop-opacity:1; stop-color:#B83A3E"/>
   <stop offset="0.0117647" style="stop-opacity:1; stop-color:#D2363B"/>
   <stop offset="0.0705882" style="stop-opacity:1; stop-color:#B83A3E"/>
   <stop offset="1" style="stop-opacity:1; stop-color:#ED3237"/>
  </linearGradient>
  <linearGradient id="id7" gradientUnits="userSpaceOnUse" xlink:href="#id6" x1="207.08" y1="155.68" x2="198.3" y2="230.59">
  </linearGradient>
  <linearGradient id="id8" gradientUnits="userSpaceOnUse" x1="891.42" y1="880.21" x2="842.62" y2="831.66">
   <stop offset="0" style="stop-opacity:1; stop-color:#762D2D"/>
   <stop offset="0.12549" style="stop-opacity:1; stop-color:#B12F32"/>
   <stop offset="0.258824" style="stop-opacity:1; stop-color:#762D2D"/>
   <stop offset="0.670588" style="stop-opacity:1; stop-color:#B83A3E"/>
   <stop offset="1" style="stop-opacity:1; stop-color:#ED3237"/>
  </linearGradient>
  <linearGradient id="id9" gradientUnits="userSpaceOnUse" xlink:href="#id2" x1="410.36" y1="988.55" x2="410.36" y2="762.51">
  </linearGradient>
  <linearGradient id="id10" gradientUnits="userSpaceOnUse" xlink:href="#id6" x1="582.77" y1="52.55" x2="575.57" y2="246.44">
  </linearGradient>
  <linearGradient id="id11" gradientUnits="userSpaceOnUse" x1="599.75" y1="724.89" x2="470.02" y2="324.84">
   <stop offset="0" style="stop-opacity:1; stop-color:#BA7940"/>
   <stop offset="0.282353" style="stop-opacity:1; stop-color:#D9AC33"/>
   <stop offset="0.65098" style="stop-opacity:1; stop-color:#F9E025"/>
   <stop offset="1" style="stop-opacity:1; stop-color:#F9E025"/>
  </linearGradient>
  <linearGradient id="id12" gradientUnits="userSpaceOnUse" xlink:href="#id6" x1="217.63" y1="120.35" x2="198.55" y2="289.47">
  </linearGradient>
  <linearGradient id="id13" gradientUnits="userSpaceOnUse" x1="996.53" y1="410.93" x2="771.72" y2="391.53">
   <stop offset="0" style="stop-opacity:1; stop-color:#762D2D"/>
   <stop offset="0.14902" style="stop-opacity:1; stop-color:#B12F32"/>
   <stop offset="0.380392" style="stop-opacity:1; stop-color:#B83A3E"/>
   <stop offset="1" style="stop-opacity:1; stop-color:#ED3237"/>
  </linearGradient>
  <linearGradient id="id14" gradientUnits="userSpaceOnUse" xlink:href="#id3" x1="135.49" y1="934.54" x2="340.75" y2="706.99">
  </linearGradient>
  <linearGradient id="id15" gradientUnits="userSpaceOnUse" x1="902.62" y1="196.43" x2="832.3" y2="190.07">
   <stop offset="0" style="stop-opacity:1; stop-color:#B83A3E"/>
   <stop offset="0.0431373" style="stop-opacity:1; stop-color:#D2363B"/>
   <stop offset="0.180392" style="stop-opacity:1; stop-color:#B83A3E"/>
   <stop offset="0.301961" style="stop-opacity:1; stop-color:#B83A3E"/>
   <stop offset="1" style="stop-opacity:1; stop-color:#ED3237"/>
  </linearGradient>
  <linearGradient id="id16" gradientUnits="userSpaceOnUse" xlink:href="#id13" x1="71.4" y1="409.09" x2="299.12" y2="395.63">
  </linearGradient>
  <linearGradient id="id17" gradientUnits="userSpaceOnUse" xlink:href="#id13" x1="64.87" y1="484.03" x2="258.56" y2="471.56">
  </linearGradient>
  <linearGradient id="id18" gradientUnits="userSpaceOnUse" xlink:href="#id13" x1="1003.61" y1="578.99" x2="812.15" y2="564.9">
  </linearGradient>
  <linearGradient id="id19" gradientUnits="userSpaceOnUse" xlink:href="#id5" x1="63.99" y1="574.19" x2="259.4" y2="568.99">
  </linearGradient>
  <linearGradient id="id20" gradientUnits="userSpaceOnUse" xlink:href="#id6" x1="495.8" y1="52.5" x2="488.69" y2="245.96">
  </linearGradient>
  <linearGradient id="id21" gradientUnits="userSpaceOnUse" x1="580.35" y1="666.8" x2="489.41" y2="385.91">
   <stop offset="0" style="stop-opacity:1; stop-color:#BA7940"/>
   <stop offset="0.219608" style="stop-opacity:1; stop-color:#D9AC33"/>
   <stop offset="0.458824" style="stop-opacity:1; stop-color:#F9E025"/>
   <stop offset="1" style="stop-opacity:1; stop-color:#F9E025"/>
  </linearGradient>
  <linearGradient id="id22" gradientUnits="userSpaceOnUse" x1="567.4" y1="618.95" x2="504.13" y2="432.57">
   <stop offset="0" style="stop-opacity:1; stop-color:#C78B55"/>
   <stop offset="0.180392" style="stop-opacity:1; stop-color:#E0B53D"/>
   <stop offset="0.65098" style="stop-opacity:1; stop-color:#F9E025"/>
   <stop offset="1" style="stop-opacity:1; stop-color:#F9E025"/>
  </linearGradient>
  <linearGradient id="id23" gradientUnits="userSpaceOnUse" xlink:href="#id2" x1="580.28" y1="996.54" x2="580.28" y2="801.53">
  </linearGradient>
  <linearGradient id="id24" gradientUnits="userSpaceOnUse" xlink:href="#id6" x1="235.47" y1="94.71" x2="207.93" y2="332.29">
  </linearGradient>
  <linearGradient id="id25" gradientUnits="userSpaceOnUse" xlink:href="#id8" x1="929.85" y1="919.09" x2="767.34" y2="754.14">
  </linearGradient>
  <linearGradient id="id26" gradientUnits="userSpaceOnUse" xlink:href="#id13" x1="996.45" y1="656.85" x2="772.08" y2="637.7">
  </linearGradient>
  <linearGradient id="id27" gradientUnits="userSpaceOnUse" xlink:href="#id8" x1="918.02" y1="902.87" x2="806.19" y2="786.31">
  </linearGradient>
  <linearGradient id="id28" gradientUnits="userSpaceOnUse" xlink:href="#id3" x1="153.8" y1="906.97" x2="262.52" y2="781.48">
  </linearGradient>
  <linearGradient id="id29" gradientUnits="userSpaceOnUse" xlink:href="#id3" x1="178.76" y1="883.2" x2="227.53" y2="828.96">
  </linearGradient>
  <linearGradient id="id30" gradientUnits="userSpaceOnUse" xlink:href="#id6" x1="417.42" y1="59.79" x2="408.37" y2="285.54">
  </linearGradient>
  <linearGradient id="id31" gradientUnits="userSpaceOnUse" xlink:href="#id15" x1="964.15" y1="223.27" x2="732.91" y2="201.83">
  </linearGradient>
  <linearGradient id="id32" gradientUnits="userSpaceOnUse" x1="983.74" y1="230.35" x2="680.23" y2="224.22">
   <stop offset="0" style="stop-opacity:1; stop-color:#B83A3E"/>
   <stop offset="0.0431373" style="stop-opacity:1; stop-color:#D2363B"/>
   <stop offset="0.168627" style="stop-opacity:1; stop-color:#B83A3E"/>
   <stop offset="1" style="stop-opacity:1; stop-color:#ED3237"/>
  </linearGradient>
  <linearGradient id="id33" gradientUnits="userSpaceOnUse" xlink:href="#id15" x1="942.52" y1="212.16" x2="781.88" y2="196.93">
  </linearGradient>
  <linearGradient id="id34" gradientUnits="userSpaceOnUse" xlink:href="#id13" x1="980.64" y1="826.39" x2="683.7" y2="817.28">
  </linearGradient>
  <linearGradient id="id35" gradientUnits="userSpaceOnUse" xlink:href="#id13" x1="1003.7" y1="484.19" x2="812" y2="470.26">
  </linearGradient>
 </defs>
 <g id="Camada_x0020_1">
  <metadata id="CorelCorpID_0Corel-Layer"/>
  <g id="_1932814372080">
   <circle class="fil0" cx="536.14" cy="524.53" r="471.87"/>
   <g>
    <g>
     <path class="fil1" d="M69.96 445.44c27.36,-29.16 104.69,-41.68 205.32,-42.41 7.16,-15.37 15.63,-30.01 25.28,-43.76 -97.46,3.21 -175.1,11.6 -223.57,52.02 -2.75,11.23 -5.1,22.62 -7.03,34.15z"/>
     <path class="fil2" d="M259.86 444.15c-92.95,0.83 -164.16,9.46 -194.06,32.12 -1.17,11.6 -1.91,23.33 -2.23,35.17 22.28,-14.14 84.47,-21.17 186.54,-17.34 1.79,-17.15 5.08,-33.84 9.75,-49.95z"/>
     <path class="fil3" d="M63.65 539.19c36.61,14.6 97.06,20.17 186.53,15.82 1.78,16.79 5.01,33.15 9.55,48.94 -83.68,0.5 -147.49,-5.26 -193.76,-30.15 -1.19,-11.42 -1.96,-22.96 -2.32,-34.61z"/>
     <path class="fil4" d="M70.09 603.85c32.85,30.58 106.28,42.7 205.61,42.53 6.99,14.87 15.21,29.04 24.53,42.38 -102.6,-1.23 -179.33,-11.75 -223.13,-51.08 -2.74,-11.13 -5.08,-22.41 -7.01,-33.83z"/>
     <path class="fil5" d="M84.85 382.92c31.59,-35.63 112.02,-57.89 249.99,-64.4 3.69,-115.03 23.32,-195.12 56.89,-244.65 -12.61,4.02 -24.98,8.56 -37.1,13.59 -34.13,61.42 -51.79,125.51 -52.83,198.96 -88.61,4.67 -164.08,30.51 -205.21,63.35 -4.31,10.86 -8.23,21.91 -11.74,33.15z"/>
     <path class="fil6" d="M103.59 333.1c23.27,-24.08 91.12,-63.81 178.35,-66.5 2.06,-64.49 36.63,-141.21 57.88,-172.71 -6.94,3.17 -13.79,6.49 -20.55,9.98 -21.97,30.14 -47.9,77.36 -59.86,141.25 -62.67,6.42 -118.61,41 -143.88,62.93 -4.22,8.22 -8.2,16.57 -11.94,25.05z"/>
     <path class="fil7" d="M125.29 290.04c22.75,-17.6 68.36,-48.8 122.17,-57.53 9.7,-45.02 28.8,-87.62 43.43,-112.72 -6.15,3.73 -12.2,7.61 -18.16,11.62 -13.69,20.7 -29.14,46.9 -38.78,87.28 -46.99,13.07 -74.82,32.52 -94.39,47.96 -4.97,7.65 -9.74,15.44 -14.27,23.39z"/>
     <path class="fil8" d="M165.26 230.85c17.16,-10.03 36.89,-18.54 58.22,-22 3.99,-18.52 9.99,-36.81 16.63,-53.43 -5.48,4.41 -10.86,8.93 -16.14,13.57 -3.2,8.21 -6.72,17.52 -10.69,28.22 -11.71,4.36 -22.01,8.91 -31.14,13.5 -5.8,6.56 -11.44,13.26 -16.88,20.14z"/>
     <path class="fil9" d="M85.36 667.16c31.93,35.3 112.25,57.35 249.48,63.83 3.66,114.06 22.99,193.76 56.04,243.38 -12.56,-4.03 -24.88,-8.57 -36.96,-13.6 -33.66,-61.03 -51.09,-124.74 -52.12,-197.68 -88.18,-4.65 -163.34,-30.26 -204.61,-62.87 -4.34,-10.83 -8.29,-21.85 -11.83,-33.06z"/>
     <path class="fil10" d="M104.37 717.2c23.97,24.16 91.28,63.05 177.57,65.71 2.03,63.52 35.6,138.91 56.91,171.26 -7.01,-3.21 -13.93,-6.6 -20.75,-10.15 -21.72,-30.19 -46.94,-76.87 -58.69,-139.63 -61.89,-6.34 -117.22,-40.14 -142.93,-62.11 -4.27,-8.23 -8.32,-16.58 -12.11,-25.08z"/>
     <path class="fil11" d="M126.31 760.26c23.08,17.72 68.14,48.14 121.15,56.74 9.5,44.12 28.03,85.91 42.54,111.19 -6.24,-3.81 -12.38,-7.76 -18.43,-11.85 -13.39,-20.42 -28.25,-46.27 -37.62,-85.52 -45.92,-12.77 -73.54,-31.64 -93.04,-46.9 -5.08,-7.74 -9.97,-15.62 -14.6,-23.66z"/>
     <path class="fil12" d="M166.76 819.53c16.81,9.65 36,17.77 56.72,21.13 3.87,17.98 9.64,35.74 16.05,51.96 -5.48,-4.42 -10.87,-8.96 -16.15,-13.63 -3.04,-7.83 -6.37,-16.65 -10.1,-26.69 -11.04,-4.11 -20.83,-8.39 -29.57,-12.72 -5.83,-6.52 -11.48,-13.21 -16.95,-20.05z"/>
     <path class="fil13" d="M417.34 262.48c-2.47,-74.75 5.99,-146.22 34.37,-203.47 -13.75,2.45 -27.27,5.53 -40.58,9.14 -30,66.8 -39.82,139.82 -36.42,218.17 13.44,-9.1 27.7,-17.09 42.63,-23.84z"/>
     <path class="fil14" d="M511.89 238.2c-2.87,-62.91 -3.29,-124.41 11.34,-186.37 -13.08,0.32 -26.01,1.18 -38.81,2.54 -19.67,54.51 -25.63,116.04 -22.27,192.25 16.07,-4.21 32.69,-7.06 49.74,-8.42z"/>
     <path class="fil15" d="M417.72 786.2c-3.34,73.6 3.48,144.48 28.93,202.35 -13.66,-2.59 -27.12,-5.75 -40.33,-9.49 -27.36,-66.48 -35.52,-138.94 -31.13,-216.55 13.41,9.05 27.64,16.99 42.53,23.69z"/>
     <path class="fil16" d="M512.35 810.35c-3.08,62.97 -4.37,124.44 8.66,186.26 -13.52,-0.39 -26.89,-1.37 -40.11,-2.87 -17.62,-54.3 -22.34,-115.81 -18.28,-191.72 16.08,4.19 32.69,7.01 49.73,8.33z"/>
     <path class="fil17" d="M999.27 443.24c-29.31,-27.76 -106.02,-39.65 -204.97,-40.22 -7.16,-15.39 -15.65,-30.04 -25.31,-43.81 96.82,3.11 174.23,11.15 223.16,50.22 2.77,11.12 5.15,22.4 7.12,33.81z"/>
     <path class="fil18" d="M809.73 444.13c91.84,0.73 162.71,8.97 193.9,30.71 1.22,11.7 1.99,23.54 2.34,35.48 -23.9,-13.47 -86.07,-20.03 -186.48,-16.15 -1.79,-17.18 -5.09,-33.9 -9.76,-50.04z"/>
     <path class="fil19" d="M1005.91 539.91c-37.04,14.15 -97.52,19.45 -186.49,15.01 -1.78,16.82 -5.01,33.2 -9.56,49.02 83.41,0.59 147.2,-4.92 193.64,-29.11 1.23,-11.52 2.03,-23.17 2.41,-34.92z"/>
     <path class="fil20" d="M999.18 605.77c-34.04,29.35 -107.15,40.92 -205.29,40.61 -6.99,14.88 -15.21,29.05 -24.54,42.4 101.72,-1.11 178.22,-11.18 222.65,-49.08 2.79,-11.16 5.2,-22.47 7.18,-33.93z"/>
     <path class="fil21" d="M983.77 379.94c-33.37,-33.89 -113.11,-55.09 -247.2,-61.42 -3.67,-114.45 -23.12,-194.31 -56.37,-243.89 12.6,4.1 24.99,8.69 37.11,13.79 33.78,61.13 51.27,124.94 52.3,198 86.72,4.57 160.86,29.42 202.54,61.26 4.25,10.57 8.13,21.33 11.62,32.26z"/>
     <path class="fil22" d="M964.64 329.97c-25.85,-24.24 -91.62,-60.79 -175.16,-63.37 -2.04,-63.65 -35.75,-139.23 -57.06,-171.47 7.05,3.27 14,6.71 20.86,10.31 21.72,30.19 46.97,76.88 58.72,139.68 60.08,6.16 113.98,38.19 140.6,60.15 4.23,8.1 8.27,16.33 12.04,24.7z"/>
     <path class="fil23" d="M942.86 287.54c-23.68,-17.9 -67.56,-46.7 -118.91,-55.03 -9.47,-43.99 -27.92,-85.66 -42.41,-110.96 6.3,3.89 12.51,7.92 18.62,12.09 13.31,20.36 28.01,46.11 37.3,85.05 44.08,12.26 71.3,30.13 90.65,45.05 5.14,7.78 10.07,15.71 14.75,23.8z"/>
     <path class="fil24" d="M902.76 228.91c-16.35,-9.18 -34.88,-16.82 -54.82,-20.06 -3.82,-17.72 -9.48,-35.23 -15.78,-51.26 5.52,4.5 10.93,9.14 16.24,13.88 2.94,7.6 6.15,16.1 9.73,25.74 10.35,3.85 19.59,7.85 27.9,11.9 5.76,6.44 11.33,13.04 16.73,19.8z"/>
     <path class="fil25" d="M983.29 670.06c-33.66,33.6 -113.27,54.63 -246.72,60.93 -3.64,113.48 -22.79,192.95 -55.53,242.62 12.56,-4.11 24.91,-8.7 36.98,-13.81 33.32,-60.73 50.57,-124.16 51.59,-196.71 86.31,-4.55 160.16,-29.18 201.95,-60.8 4.29,-10.56 8.2,-21.31 11.73,-32.23z"/>
     <path class="fil26" d="M963.83 720.3c-26.41,24.24 -91.67,60.06 -174.35,62.61 -2.01,62.73 -34.77,137.03 -56.12,170.03 7.12,-3.32 14.14,-6.81 21.06,-10.47 21.46,-30.23 46.04,-76.38 57.58,-138.08 59.4,-6.09 112.75,-37.46 139.68,-59.4 4.27,-8.1 8.34,-16.33 12.15,-24.69z"/>
     <path class="fil27" d="M941.8 762.76c-23.91,17.96 -67.26,46.03 -117.85,54.24 -9.28,43.11 -27.18,83.98 -41.53,109.42 6.41,-3.98 12.72,-8.1 18.92,-12.37 12.99,-20.07 27.1,-45.44 36.12,-83.23 43.09,-11.98 70.07,-29.34 89.34,-44.04 5.23,-7.84 10.23,-15.85 15,-24.02z"/>
     <path class="fil28" d="M901.32 821.4c-15.99,8.82 -34.02,16.12 -53.38,19.26 -3.71,17.19 -9.14,34.17 -15.21,49.81 5.52,-4.53 10.94,-9.18 16.26,-13.95 2.78,-7.21 5.8,-15.22 9.14,-24.22 9.71,-3.61 18.45,-7.36 26.36,-11.15 5.79,-6.42 11.39,-13.01 16.83,-19.75z"/>
     <path class="fil29" d="M654.04 263.31c2.56,-74.89 -5.81,-146.52 -34.15,-203.93 13.77,2.52 27.32,5.65 40.65,9.34 29.95,66.99 39.65,140.23 36.11,218.83 -13.42,-9.24 -27.67,-17.36 -42.61,-24.24z"/>
     <path class="fil30" d="M559.52 238.36c2.87,-62.94 3.3,-124.48 -11.32,-186.47 13.1,0.36 26.06,1.29 38.87,2.7 19.65,54.57 25.58,116.19 22.17,192.52 -16.06,-4.32 -32.68,-7.28 -49.72,-8.75z"/>
     <path class="fil31" d="M653.65 785.39c3.42,73.72 -3.31,144.77 -28.72,202.77 13.69,-2.66 27.17,-5.89 40.41,-9.7 27.31,-66.66 35.35,-139.33 30.82,-217.16 -13.4,9.19 -27.61,17.26 -42.51,24.09z"/>
     <path class="fil32" d="M559.05 810.19c3.09,63 4.4,124.5 -8.63,186.35 13.54,-0.44 26.94,-1.46 40.16,-3.02 17.6,-54.36 22.28,-115.95 18.18,-191.99 -16.06,4.3 -32.67,7.23 -49.71,8.66z"/>
     <path class="fil33" d="M534.88 735.43c64.67,0.09 132.81,-1.89 200.95,-5.97 8.77,-136 8.76,-272 0,-408 -68.14,-4.9 -136.28,-7.27 -200.95,-7.16 -64.66,-0.11 -132.8,2.26 -200.95,7.16 -8.76,136 -8.76,272 0,408 68.15,4.08 136.29,6.06 200.95,5.97zm0 -31.58c54.71,0.08 110.92,-1.71 168.68,-5.38 6.37,-115.34 6.37,-230.68 0,-346.02 -57.97,-2.86 -114.18,-4.25 -168.68,-4.18 -54.49,-0.07 -111.58,1.32 -169.55,4.18 -6.38,115.34 -6.37,230.68 0,346.02 57.76,3.67 114.85,5.46 169.55,5.38z"/>
     <path class="fil34" d="M534.88 378.55c44.79,-0.05 93.21,0.91 141.84,2.94 5.51,96.77 5.48,192.76 0,287.96 -48.83,3.21 -97.25,4.77 -141.84,4.71 -44.59,0.06 -93.01,-1.5 -141.84,-4.71 -5.47,-95.2 -5.51,-191.19 0,-287.96 48.63,-2.03 97.05,-2.99 141.84,-2.94zm0 24.36c36.8,-0.06 75.3,0.93 116.02,2.98 3.95,82.49 4.01,159.84 0,239.14 -40.72,2.89 -79.22,4.26 -116.02,4.18 -36.79,0.08 -75.29,-1.29 -116.01,-4.18 -4.02,-79.3 -3.96,-156.65 0,-239.14 40.72,-2.05 79.22,-3.04 116.01,-2.98z"/>
     <path class="fil35" d="M534.88 426.93c28.7,-0.07 60.87,0.91 93.26,2.99 3.17,64.49 3.21,128.19 0,191.09 -32.39,2.5 -64.56,3.68 -93.26,3.58 -28.7,0.1 -59.1,-1.08 -91.5,-3.58 -3.2,-62.9 -3.17,-126.6 0,-191.09 32.4,-2.08 62.8,-3.06 91.5,-2.99zm0.03 27.38c19.6,-0.03 42.57,0.54 66.65,1.75 2.33,47.21 2.32,90.06 0,138.82 -24.08,1.61 -47.05,2.37 -66.65,2.33 -19.61,0.04 -40.86,-0.72 -64.94,-2.33 -2.33,-48.76 -2.33,-91.61 0,-138.82 24.07,-1.21 45.33,-1.78 64.94,-1.75z"/>
     <path class="fil36" d="M288.2 670.04c-6.78,-94.92 -7.55,-191.86 0,-291.57 -25.19,42.73 -39.66,92.56 -39.66,145.79 0,53.22 14.47,103.06 39.66,145.78z"/>
     <path class="fil37" d="M672.48 775.9c-94.21,6.44 -185.94,6.3 -275.37,0 40.85,22.51 87.77,35.33 137.68,35.33 49.92,0 96.84,-12.82 137.69,-35.33z"/>
     <path class="fil38" d="M392.82 275.02c93.84,-6.41 188.51,-6.34 283.95,0 -41.84,-24 -90.31,-37.73 -141.98,-37.73 -51.66,0 -100.13,13.73 -141.97,37.73z"/>
     <path class="fil39" d="M534.79 237.29c158.1,0 286.26,128.48 286.26,286.97 0,158.49 -128.16,286.97 -286.26,286.97 -158.09,0 -286.25,-128.48 -286.25,-286.97 0,-158.49 128.16,-286.97 286.25,-286.97z"/>
     <path class="fil39" d="M534.79 51.69c260.35,0 471.4,211.57 471.4,472.57 0,260.99 -211.05,472.57 -471.4,472.57 -260.34,0 -471.39,-211.58 -471.39,-472.57 0,-261 211.05,-472.57 471.39,-472.57z"/>
     <path class="fil40" d="M782.03 670.04c6.78,-94.92 7.55,-191.86 0,-291.57 25.19,42.73 39.66,92.56 39.66,145.79 0,53.22 -14.47,103.06 -39.66,145.78z"/>
     <path class="fil41" d="M534.49 481.94c12.73,-0.03 26.99,0.4 41.35,1.32 1.41,28.6 1.42,56.84 0,84.73 -14.36,1.11 -28.62,1.63 -41.35,1.59 -12.72,0.04 -26.2,-0.48 -40.57,-1.59 -1.42,-27.89 -1.4,-56.13 0,-84.73 14.37,-0.92 27.85,-1.35 40.57,-1.32zm0.15 23.81c5.49,0 11.92,0.15 18.67,0.49 0.65,13.22 0.65,25.22 0,38.87 -6.75,0.46 -13.18,0.67 -18.67,0.65 -5.49,0.02 -11.44,-0.19 -18.18,-0.65 -0.65,-13.65 -0.65,-25.65 0,-38.87 6.74,-0.34 12.69,-0.49 18.18,-0.49z"/>
    </g>
    <path class="fil0" style="mask:url(#id0)" d="M391.63 74.13l0.07 -0.02c-51.98,70.41 -56.57,218.9 -56.98,244.58 -48.89,3.73 -100.77,8.24 -142.57,16.41 -29.85,5.84 -82.65,22.05 -106.06,46.02 3.46,-10.94 7.31,-21.7 11.52,-32.27 8.98,-6.84 80.55,-58.36 203.9,-61.99 0,0 -3.88,-101.29 52.49,-198.87 12.29,-5.14 24.84,-9.77 37.63,-13.86zm-286.61 257.19c3.84,-8.6 7.93,-17.06 12.26,-25.38 10.72,-8.77 69.41,-54.2 142.59,-60.71 0,0 7.16,-69.95 58.78,-140.72 6.45,-3.35 12.99,-6.56 19.61,-9.62 -4.9,7.61 -49.92,79.62 -56.74,171.99 0,0 -100.51,-1.1 -176.5,64.44zm22.35 -43.77c4.44,-7.68 9.08,-15.22 13.93,-22.62 9.93,-7.65 48.6,-35.77 93.03,-45.8 0,0 5.99,-38.09 36.82,-86.26 6.26,-4.26 12.64,-8.37 19.11,-12.33 -2.03,3.36 -26.63,44.87 -42.05,111.36 0,0 -55.34,6.04 -120.84,55.65zm38.89 -57.19c5.63,-7.1 11.47,-14.04 17.49,-20.8 5.04,-2.16 20.71,-8.85 29.48,-12.08 0,0 6.3,-17.31 10.73,-27.96 5.25,-4.65 10.62,-9.18 16.08,-13.58l-0.71 1.01c0,0 -13.88,39.42 -16.1,51.63 0,0 -17.54,0.01 -56.97,21.78zm243.72 -161.77c0.59,-0.11 1.09,-0.16 1.47,-0.16 3.85,-1.86 22.94,-6.18 40.05,-9.51l-0.52 0.9c-37.07,77.76 -35.3,176.7 -34.18,201.46l-41.8 25.81c-6.08,-135.11 31.57,-211.85 34.98,-218.5zm-109.81 290.96l-25.43 44.41c-22.47,-0.78 -64.09,-0.99 -114.42,7.37 -77.12,12.8 -91.21,35.76 -91.21,35.76l-0.55 0.55c1.29,-8.16 4.11,-21.81 7.4,-34.93 24.01,-21.77 58.4,-32.04 58.4,-32.04 35.72,-11.91 77.06,-15.73 77.06,-15.73 46.88,-4.74 78.5,-5.34 88.75,-5.39z"/>
   </g>
  </g>
  <g id="_1932814370288">
   <path class="fil42" d="M1182.58 378.85l0 -32.52 74.63 0 0 66.46c-14.29,9.74 -26.91,16.4 -37.86,19.93 -10.99,3.53 -24.01,5.27 -39.07,5.27 -18.55,0 -33.68,-3.16 -45.35,-9.49 -11.68,-6.29 -20.74,-15.71 -27.17,-28.23 -6.44,-12.47 -9.64,-26.84 -9.64,-43.03 0,-17.06 3.53,-31.86 10.55,-44.48 7.02,-12.59 17.31,-22.15 30.88,-28.7 10.58,-5.06 24.84,-7.57 42.73,-7.57 17.25,0 30.16,1.57 38.71,4.7 8.58,3.13 15.67,7.96 21.31,14.55 5.64,6.58 9.89,14.91 12.73,24.99l-46.48 8.36c-1.93,-5.93 -5.17,-10.48 -9.75,-13.6 -4.58,-3.17 -10.41,-4.73 -17.53,-4.73 -10.55,0 -18.99,3.67 -25.28,11.02 -6.3,7.35 -9.42,18.99 -9.42,34.88 0,16.88 3.16,28.95 9.53,36.19 6.33,7.24 15.2,10.88 26.55,10.88 5.38,0 10.51,-0.77 15.42,-2.33 4.87,-1.56 10.48,-4.22 16.8,-7.93l0 -14.62 -32.29 0zm103.88 56.52l0 -156.26 80.45 0c14.92,0 26.34,1.28 34.19,3.86 7.9,2.55 14.26,7.31 19.1,14.22 4.84,6.95 7.24,15.42 7.24,25.39 0,8.66 -1.86,16.15 -5.57,22.44 -3.67,6.33 -8.76,11.42 -15.27,15.35 -4.11,2.48 -9.79,4.55 -16.95,6.19 5.74,1.92 9.93,3.81 12.55,5.74 1.74,1.28 4.32,4.04 7.71,8.22 3.34,4.18 5.6,7.42 6.73,9.71l23.46 45.14 -54.56 0 -25.79 -47.65c-3.28,-6.18 -6.19,-10.18 -8.73,-12.04 -3.49,-2.4 -7.46,-3.6 -11.86,-3.6l-4.25 0 0 63.29 -48.45 0zm48.45 -92.75l20.4 0c2.18,0 6.48,-0.73 12.8,-2.14 3.2,-0.62 5.82,-2.26 7.82,-4.92 2.04,-2.65 3.06,-5.67 3.06,-9.09 0,-5.05 -1.6,-8.95 -4.8,-11.64 -3.2,-2.73 -9.2,-4.07 -18.04,-4.07l-21.24 0 0 31.86zm218.6 -63.51l48.23 0 0 93.08c0,9.2 -1.46,17.94 -4.33,26.12 -2.87,8.22 -7.39,15.38 -13.53,21.53 -6.15,6.15 -12.59,10.44 -19.32,12.95 -9.38,3.46 -20.66,5.2 -33.79,5.2 -7.6,0 -15.89,-0.54 -24.88,-1.6 -8.98,-1.05 -16.51,-3.16 -22.55,-6.33 -6.03,-3.16 -11.56,-7.64 -16.55,-13.46 -5.02,-5.82 -8.44,-11.82 -10.29,-18 -2.98,-9.93 -4.47,-18.73 -4.47,-26.41l0 -93.08 48.23 0 0 95.3c0,8.51 2.36,15.17 7.05,19.93 4.73,4.8 11.28,7.2 19.64,7.2 8.26,0 14.77,-2.36 19.5,-7.09 4.69,-4.69 7.06,-11.38 7.06,-20.04l0 -95.3zm79.87 0l80.31 0c17.5,0 30.59,4.15 39.32,12.48 8.7,8.33 13.06,20.19 13.06,35.57 0,15.79 -4.76,28.16 -14.26,37.03 -9.49,8.91 -24,13.35 -43.5,13.35l-26.48 0 0 57.83 -48.45 0 0 -156.26zm48.45 66.78l11.9 0c9.38,0 15.96,-1.63 19.75,-4.87 3.78,-3.24 5.67,-7.38 5.67,-12.44 0,-4.91 -1.64,-9.06 -4.95,-12.47 -3.27,-3.42 -9.45,-5.13 -18.55,-5.13l-13.82 0 0 34.91zm103.26 11.46c0,-25.5 7.1,-45.35 21.32,-59.54 14.22,-14.22 34.01,-21.32 59.4,-21.32 26,0 46.04,6.99 60.12,20.92 14.08,13.97 21.1,33.54 21.1,58.67 0,18.26 -3.06,33.21 -9.21,44.88 -6.14,11.68 -15.05,20.77 -26.66,27.28 -11.64,6.51 -26.11,9.75 -43.46,9.75 -17.61,0 -32.19,-2.8 -43.76,-8.4 -11.53,-5.64 -20.92,-14.51 -28.08,-26.66 -7.17,-12.11 -10.77,-27.32 -10.77,-45.58zm48.23 0.11c0,15.75 2.95,27.1 8.81,33.97 5.89,6.88 13.89,10.33 24,10.33 10.37,0 18.44,-3.38 24.12,-10.11 5.71,-6.76 8.55,-18.84 8.55,-36.33 0,-14.7 -2.99,-25.43 -8.92,-32.19 -5.96,-6.81 -14,-10.19 -24.18,-10.19 -9.75,0 -17.61,3.46 -23.5,10.33 -5.93,6.88 -8.88,18.3 -8.88,34.19z"/>
   <path class="fil42" d="M1275.47 648.01l78.37 23.63c-5.25,21.95 -13.53,40.33 -24.91,55.01 -11.31,14.75 -25.31,25.86 -42.15,33.33 -16.76,7.47 -38.1,11.24 -64.03,11.24 -31.51,0 -57.16,-4.57 -77.16,-13.66 -19.93,-9.16 -37.09,-25.25 -51.57,-48.21 -14.48,-22.96 -21.75,-52.45 -21.75,-88.27 0,-47.8 12.73,-84.57 38.18,-110.29 25.52,-25.65 61.54,-38.51 108.13,-38.51 36.42,0 65.11,7.34 85.98,22.09 20.8,14.74 36.36,37.36 46.46,67.93l-78.78 17.44c-2.76,-8.75 -5.65,-15.15 -8.68,-19.19 -5.05,-6.8 -11.18,-12.05 -18.39,-15.69 -7.27,-3.7 -15.35,-5.52 -24.3,-5.52 -20.33,0 -35.89,8.15 -46.66,24.38 -8.15,12.05 -12.25,31.03 -12.25,56.82 0,32.05 4.84,53.93 14.61,65.85 9.76,11.85 23.43,17.77 41.07,17.77 17.1,0 30.03,-4.78 38.78,-14.4 8.75,-9.56 15.08,-23.5 19.05,-41.75zm122.74 118.37l0 -289.25 148.94 0c27.6,0 48.74,2.36 63.29,7.14 14.61,4.71 26.39,13.53 35.34,26.32 8.96,12.86 13.4,28.55 13.4,47 0,16.02 -3.43,29.89 -10.3,41.54 -6.8,11.72 -16.23,21.14 -28.28,28.41 -7.61,4.58 -18.11,8.42 -31.37,11.45 10.63,3.57 18.38,7.07 23.23,10.64 3.23,2.35 8.01,7.47 14.27,15.21 6.19,7.75 10.37,13.74 12.46,17.98l43.42 83.56 -100.99 0 -47.74 -88.2c-6.06,-11.45 -11.44,-18.86 -16.16,-22.29 -6.46,-4.44 -13.8,-6.67 -21.95,-6.67l-7.87 0 0 117.16 -89.69 0zm89.69 -171.69l37.77 0c4.04,0 11.98,-1.35 23.7,-3.98 5.92,-1.14 10.77,-4.17 14.47,-9.09 3.77,-4.91 5.66,-10.5 5.66,-16.83 0,-9.36 -2.96,-16.56 -8.89,-21.54 -5.92,-5.05 -17.03,-7.54 -33.39,-7.54l-39.32 0 0 58.98zm226.96 -117.56l89.69 0 0 289.25 -89.69 0 0 -289.25zm331.53 241.58l-101.26 0 -14.54 47.67 -91.24 0 108.88 -289.25 97.83 0 108.4 289.25 -93.59 0 -14.48 -47.67zm-18.92 -62.62l-31.58 -103.96 -31.71 103.96 63.29 0zm156.41 110.29l0 -289.25 148.93 0c27.61,0 48.75,2.36 63.29,7.14 14.61,4.71 26.39,13.53 35.35,26.32 8.95,12.86 13.4,28.55 13.4,47 0,16.02 -3.44,29.89 -10.31,41.54 -6.79,11.72 -16.22,21.14 -28.27,28.41 -7.61,4.58 -18.11,8.42 -31.38,11.45 10.64,3.57 18.38,7.07 23.23,10.64 3.23,2.35 8.01,7.47 14.27,15.21 6.2,7.75 10.37,13.74 12.46,17.98l43.43 83.56 -101 0 -47.73 -88.2c-6.06,-11.45 -11.45,-18.86 -16.16,-22.29 -6.47,-4.44 -13.8,-6.67 -21.95,-6.67l-7.88 0 0 117.16 -89.68 0zm89.68 -171.69l37.77 0c4.04,0 11.99,-1.35 23.7,-3.98 5.93,-1.14 10.78,-4.17 14.48,-9.09 3.77,-4.91 5.65,-10.5 5.65,-16.83 0,-9.36 -2.96,-16.56 -8.88,-21.54 -5.93,-5.05 -17.04,-7.54 -33.4,-7.54l-39.32 0 0 58.98z"/>
  </g>
 </g>
</svg>
